<?xml version="1.0" encoding="utf-8"?>
<svg viewBox="0 0 500 500" xmlns="http://www.w3.org/2000/svg">
  <defs>
    <clipPath clipPathUnits="userSpaceOnUse" id="clipPath16">
      <path d="m 0,46.934 h 612 v 612 H 0 Z" id="path14"/>
    </clipPath>
  </defs>
  <g id="g8" transform="matrix(1.333333, 0, 0, -1.333333, -158.707092, 782.930603)">
    <g id="g10" style="" transform="matrix(0.991386, 0, 0, 0.989341, 3.664946, 4.504701)">
      <g id="g12" clip-path="url(#clipPath16)">
        <g id="g18" transform="translate(491.7953,400.0068)">
          <path d="m 0,0 c 0,-102.525 -83.114,-185.639 -185.639,-185.639 -102.526,0 -185.639,83.114 -185.639,185.639 0,102.525 83.113,185.643 185.639,185.643 C -83.114,185.643 0,102.525 0,0" style="fill:#f7911d;fill-opacity:1;fill-rule:nonzero;stroke:none" id="path20"/>
        </g>
        <g id="g22" transform="translate(491.7953,400.0068)">
          <path d="m 0,0 c 0,-102.525 -83.114,-185.639 -185.639,-185.639 -102.526,0 -185.639,83.114 -185.639,185.639 0,102.525 83.113,185.643 185.639,185.643 C -83.114,185.643 0,102.525 0,0 Z" style="fill:none;stroke:#ed2024;stroke-width:4.292;stroke-linecap:butt;stroke-linejoin:miter;stroke-miterlimit:4;stroke-dasharray:none;stroke-opacity:1" id="path24"/>
        </g>
        <g id="g26" transform="translate(477.4843,400.0068)">
          <path d="M 0,0 C 0,94.621 -76.706,171.336 -171.329,171.336 -265.953,171.336 -342.66,94.621 -342.66,0 c 0,-52.685 23.802,-99.795 61.214,-131.223 l 12.603,29.336 -16.464,-9.145 21.219,16.098 -15.922,-37.512 c 3.532,-2.9 7.203,-5.637 10.962,-8.256 l 38.986,30.767 3.231,-52.155 c 4.367,-1.492 8.799,-2.847 13.318,-3.995 l 22.599,52.494 14.967,-57.622 c 1.539,-0.041 3.07,-0.119 4.618,-0.119 1.944,0 3.869,0.083 5.797,0.146 l 6.449,50.644 21.815,-47.394 c 2.868,0.581 5.714,1.228 8.529,1.947 l -2.903,46.175 3.916,-45.899 C -54.224,-146.425 0,-79.553 0,0" style="fill:#2384c6;fill-opacity:1;fill-rule:nonzero;stroke:none" id="path28"/>
        </g>
        <g id="g30" transform="translate(306.1561,571.3406)">
          <path d="m 0,0 13.749,-106.649 55.938,91.837 -30.818,-103.021 88.456,61.144 -70.056,-81.579 105.678,19.881 -97.181,-46.033 104.628,-24.821 -107.503,-2.525 85.487,-65.232 -99.235,41.418 51.563,-94.362 -73.809,78.199 L 35.622,-338.92 0,-237.459 -35.622,-338.92 l 8.726,107.177 -73.81,-78.199 51.564,94.362 -99.236,-41.418 85.487,65.232 -107.502,2.525 104.628,24.821 -97.182,46.033 105.679,-19.881 -70.056,81.579 88.455,-61.144 -30.818,103.021 55.938,-91.837 z" style="fill:#6c9dcc;fill-opacity:1;fill-rule:nonzero;stroke:none" id="path32"/>
        </g>
        <g id="g34" transform="translate(311.1527,363.3225)">
          <path d="m 0,0 c 0,0 109.025,8.569 98.465,43.37 -7.862,25.903 -21.458,7.511 -9.417,-2.964 0,0 -37.879,4.827 -20.119,23.601 17.754,18.772 39.467,8.795 45.517,-11.266 C 120.5,32.678 124.484,-63.513 12.142,-105.237" style="fill:#f15d22;fill-opacity:1;fill-rule:nonzero;stroke:none" id="path36"/>
        </g>
        <g id="g38" transform="translate(325.1048,354.4949)">
          <path d="m 0,0 c 0,0 107.41,12.819 86.607,58.782 -5.57,12.302 -17.324,10.397 -18.216,2.876 -0.386,-3.27 0.526,-8.391 6.604,-12.311 0,0 -31.419,6.952 -17.177,22.017 14.244,15.057 33.824,8.467 39.386,-9.192 3.053,-9.695 4.296,-27.395 0.29,-46.207 C 90.241,-18.103 65.358,-58.43 7.301,-79.99" style="fill:#f7911d;fill-opacity:1;fill-rule:nonzero;stroke:none" id="path40"/>
        </g>
        <g id="g42" transform="translate(263.4922,366.5064)">
          <path d="m 0,0 c 0,0 -79.225,40.582 -60.392,63.422 14.02,16.998 18.476,-1.081 6.147,-5.176 0,0 29.968,-8.243 22.509,11.425 -7.461,19.669 -26.899,18.973 -37.727,5.798 -10.832,-13.179 -43.952,-84.202 27.378,-150.731" style="fill:#f15d22;fill-opacity:1;fill-rule:nonzero;stroke:none" id="path44"/>
        </g>
        <g id="g46" transform="translate(250.2434,364.24)">
          <path d="m 0,0 c 0,0 -76.681,43.275 -46.652,71.29 8.035,7.496 16.271,2.385 14.583,-3.547 -0.736,-2.577 -3.023,-6.139 -8.815,-7.174 0,0 25.782,-4.622 19.798,11.158 -5.981,15.772 -22.758,16.954 -32.469,5.43 -5.331,-6.331 -11.805,-19.239 -14.69,-34.627 -5.222,-27.866 0.843,-65.955 37.707,-100.34" style="fill:#f7911d;fill-opacity:1;fill-rule:nonzero;stroke:none" id="path48"/>
        </g>
        <g id="g50" transform="translate(327.8191,349.3502)">
          <path d="m 0,0 c 0,0 39.13,0.22 72.7,24.453 0,0 -12.893,-15.34 -34.457,-27.346 0,0 39.35,14.676 50.243,36.462 0,0 -0.221,-17.336 -46.911,-45.797 0,0 29.346,6.668 42.911,27.347 0,0 -5.116,-22.903 -37.576,-38.687 0,0 14.23,-1.999 28.013,11.562 0,0 -6.225,-17.341 -33.57,-30.236 0,0 9.337,-0.446 14.674,3.112 0,0 -17.563,-14.452 -41.131,-26.011 z" style="fill:#ffd600;fill-opacity:1;fill-rule:nonzero;stroke:none" id="path52"/>
        </g>
        <g id="g54" transform="translate(256.0381,359.7389)">
          <path d="m 0,0 c 0,0 -33.712,11.088 -55.943,41.358 0,0 6.858,-16.832 22.131,-33.201 0,0 -29.883,23.628 -33.217,45.468 0,0 -4.641,-15.032 27.737,-52.602 0,0 -23.474,13.935 -29.421,35.559 0,0 -1.967,-21.193 21.656,-43.855 0,0 -12.839,2.23 -20.963,17.781 0,0 0.544,-16.708 20.56,-35.453 0,0 -8.183,2.215 -11.798,6.772 0,0 11.137,-17.367 28.26,-33.909 z" style="fill:#ffd600;fill-opacity:1;fill-rule:nonzero;stroke:none" id="path56"/>
        </g>
        <g id="g58" transform="translate(309.9367,228.2413)">
          <path d="m 0,0 c -2.512,58.447 12.377,131.564 18.118,157.218 l -24.798,10.398 -47.13,-8.417 c 0,0 -39.733,-47.146 -69.377,-110.414 30.891,-30.203 73.153,-48.83 119.767,-48.83 1.146,0 2.283,0.018 3.42,0.045" style="fill:#ffd600;fill-opacity:1;fill-rule:nonzero;stroke:none" id="path60"/>
        </g>
        <g id="g62" transform="translate(329.3465,384.9154)">
          <path d="m 0,0 -1.292,0.544 c -5.741,-25.654 -20.631,-98.771 -18.118,-157.218 18.255,0.354 35.804,3.563 52.23,9.201 C 14.779,-106.764 -4.132,-50.504 0,0" style="fill:#fdb813;fill-opacity:1;fill-rule:nonzero;stroke:none" id="path64"/>
        </g>
        <g id="g66" transform="translate(308.2308,468.3238)">
          <path d="m 0,0 c 0,0 -11.86,23.063 1.381,42.658 14.222,21.052 53.79,-0.597 66.328,1.776 32.867,6.216 0.815,26.506 -7.697,26.652 0,0 27.63,-0.71 35.527,-17.718 C 103.235,36.786 100.877,14.825 78.37,8.308 67.69,5.219 57.588,7.923 52.591,4.889 42.725,-1.104 44.487,-13.556 43.134,-25.749" style="fill:#f7911d;fill-opacity:1;fill-rule:nonzero;stroke:none" id="path68"/>
        </g>
        <g id="g70" transform="translate(310.2023,473.6705)">
          <path d="m 0,0 c 0,2.37 -6.812,31.091 11.549,39.385 13.265,5.987 34.352,-11.254 61.001,-5.92 6.493,1.298 10.66,2.959 12.139,9.476 0.338,1.478 0.492,4.632 -0.565,7.276 -1.757,4.375 -5.272,8.347 -5.272,8.347 0,0 23.279,-16.034 11.168,-40.8 C 82.026,1.413 57.151,12.436 47.676,7.995 38.202,3.555 34.647,3.555 35.238,-22.209" style="fill:#ffde2f;fill-opacity:1;fill-rule:nonzero;stroke:none" id="path72"/>
        </g>
        <g id="g74" transform="translate(318.4932,472.7792)">
          <path d="m 0,0 c 0,0 -2.072,33.758 22.211,28.727 24.281,-5.034 49.156,-10.365 56.557,4.442 0,0 9.364,-20.236 -48.857,-13.922 -12.282,1.336 -9.479,-24.575 -7.7,-29.311" style="fill:#fff2c4;fill-opacity:1;fill-rule:nonzero;stroke:none" id="path76"/>
        </g>
        <g id="g78" transform="translate(285.2449,470.3502)">
          <path d="m 0,0 c 1.827,-2.722 2.894,-5.994 2.894,-9.515 0,-9.441 -7.655,-17.095 -17.097,-17.095 -4.255,0 -8.145,1.559 -11.138,4.134 3.068,-4.568 8.282,-7.577 14.2,-7.577 9.442,0 17.094,7.654 17.094,17.093 C 5.953,-7.776 3.644,-3.137 0,0" style="fill:#dcddde;fill-opacity:1;fill-rule:nonzero;stroke:none" id="path80"/>
        </g>
        <g id="g82" transform="translate(288.1388,460.8354)">
          <path d="m 0,0 c 0,3.521 -1.066,6.793 -2.894,9.515 -2.991,2.571 -6.881,4.131 -11.141,4.131 -9.439,0 -17.094,-7.651 -17.094,-17.091 0,-3.522 1.069,-6.796 2.894,-9.515 2.994,-2.576 6.884,-4.135 11.138,-4.135 C -7.655,-17.095 0,-9.441 0,0" style="fill:#ffffff;fill-opacity:1;fill-rule:nonzero;stroke:none" id="path84"/>
        </g>
        <g id="g86" transform="translate(270.4771,469.8978)">
          <path d="m 0,0 c -1.078,0.815 -2.421,1.302 -3.876,1.302 -3.566,0 -6.456,-2.89 -6.456,-6.455 0,-1.256 0.365,-2.421 0.983,-3.413 1.14,-1.823 3.161,-3.044 5.473,-3.044 3.567,0 6.456,2.89 6.456,6.457 C 2.58,-3.047 1.563,-1.179 0,0" style="fill:#231f20;fill-opacity:1;fill-rule:nonzero;stroke:none" id="path88"/>
        </g>
        <g id="g90" transform="translate(268.9388,468.413)">
          <path d="m 0,0 c 0.082,-0.137 0.131,-0.291 0.131,-0.46 0,-0.478 -0.39,-0.87 -0.868,-0.87 -0.199,0 -0.379,0.065 -0.524,0.175 0.153,-0.243 0.426,-0.407 0.737,-0.407 0.481,0 0.868,0.384 0.868,0.867 C 0.344,-0.41 0.209,-0.158 0,0" style="fill:#ffffff;fill-opacity:1;fill-rule:nonzero;stroke:none" id="path92"/>
        </g>
        <g id="g94" transform="translate(269.0696,467.9529)">
          <path d="m 0,0 c 0,0.169 -0.048,0.324 -0.131,0.46 -0.146,0.111 -0.329,0.179 -0.524,0.179 -0.48,0 -0.87,-0.39 -0.87,-0.874 0,-0.169 0.05,-0.323 0.133,-0.46 0.145,-0.11 0.326,-0.175 0.524,-0.175 C -0.389,-0.87 0,-0.478 0,0" style="fill:#ffffff;fill-opacity:1;fill-rule:nonzero;stroke:none" id="path96"/>
        </g>
        <g id="g98" transform="translate(256.8586,385.1331)">
          <path d="M 0,0 C 0,0 -6.423,23.291 5.623,57.819 17.67,92.354 54.611,97.168 76.293,88.335 97.973,79.502 100.384,47.381 95.564,32.123 90.748,16.862 74.847,-4.085 66.816,-14.525" style="fill:#ffd600;fill-opacity:1;fill-rule:nonzero;stroke:none" id="path100"/>
        </g>
        <g id="g102" transform="translate(240.9533,448.4538)">
          <path d="M 0,0 C 0,0 23.19,-9.505 34.924,-24.483 L 50.788,-19.03 24.432,-4.622 Z" style="fill:#fdb813;fill-opacity:1;fill-rule:nonzero;stroke:none" id="path104"/>
        </g>
        <g id="g106" transform="translate(313.1164,464.1417)">
          <path d="m 0,0 c 1.826,-2.726 2.892,-5.994 2.892,-9.52 0,-9.436 -7.653,-17.093 -17.093,-17.093 -4.258,0 -8.146,1.559 -11.14,4.137 3.07,-4.57 8.285,-7.579 14.2,-7.579 9.442,0 17.098,7.651 17.098,17.09 C 5.957,-7.782 3.644,-3.14 0,0" style="fill:#e2e2e1;fill-opacity:1;fill-rule:nonzero;stroke:none" id="path108"/>
        </g>
        <g id="g110" transform="translate(316.0086,454.6218)">
          <path d="m 0,0 c 0,3.526 -1.066,6.794 -2.892,9.52 -2.992,2.569 -6.881,4.132 -11.141,4.132 -9.441,0 -17.092,-7.654 -17.092,-17.097 0,-3.516 1.067,-6.793 2.892,-9.511 2.994,-2.578 6.881,-4.137 11.14,-4.137 C -7.653,-17.093 0,-9.436 0,0" style="fill:#ffffff;fill-opacity:1;fill-rule:nonzero;stroke:none" id="path112"/>
        </g>
        <g id="g114" transform="translate(300.9581,461.3495)">
          <path d="m 0,0 c -1.292,0.972 -2.897,1.56 -4.642,1.56 -4.27,0 -7.732,-3.46 -7.732,-7.732 0,-1.502 0.436,-2.901 1.176,-4.086 1.365,-2.187 3.788,-3.649 6.556,-3.649 4.27,0 7.73,3.465 7.73,7.735 C 3.088,-3.647 1.874,-1.411 0,0" style="fill:#231f20;fill-opacity:1;fill-rule:nonzero;stroke:none" id="path116"/>
        </g>
        <g id="g118" transform="translate(299.1137,459.5711)">
          <path d="m 0,0 c 0.099,-0.161 0.16,-0.347 0.16,-0.547 0,-0.576 -0.468,-1.043 -1.046,-1.043 -0.234,0 -0.45,0.078 -0.623,0.209 0.181,-0.295 0.509,-0.491 0.886,-0.491 0.57,0 1.04,0.467 1.04,1.041 C 0.417,-0.489 0.252,-0.19 0,0" style="fill:#ffffff;fill-opacity:1;fill-rule:nonzero;stroke:none" id="path120"/>
        </g>
        <g id="g122" transform="translate(299.2735,459.0243)">
          <path d="m 0,0 c 0,0.199 -0.061,0.386 -0.16,0.547 -0.174,0.134 -0.391,0.211 -0.623,0.211 -0.58,0 -1.045,-0.467 -1.045,-1.043 0,-0.205 0.059,-0.388 0.159,-0.55 0.173,-0.13 0.389,-0.208 0.623,-0.208 C -0.468,-1.043 0,-0.576 0,0" style="fill:#ffffff;fill-opacity:1;fill-rule:nonzero;stroke:none" id="path124"/>
        </g>
        <g id="g126" transform="translate(270.3235,438.2062)">
          <path d="m 0,0 c 12.313,-9.061 19.062,-7.068 19.062,-7.068 -4.284,6.424 -9.488,18.292 -8.583,21.188 -0.008,0.095 -0.023,0.179 -0.034,0.27 0,0 -21.136,0.717 -41.337,-4.333 C -25.722,10.265 -12.312,9.068 0,0" style="fill:#fdb813;fill-opacity:1;fill-rule:nonzero;stroke:none" id="path128"/>
        </g>
        <g id="g130" transform="translate(292.3844,428.9954)">
          <path d="M 0,0 C 0,0 -10.246,11.522 -11.581,23.331 -12.487,20.435 -7.814,9.153 -3.53,2.73 c 0,0 -3.96,4.141 -23.19,11.025 -12.916,4.625 -19.35,5.721 -24.522,5.513 0,0 10.074,-1.521 22.051,-5.703 C -16.871,9.264 -13.922,5.356 0,0" style="fill:#f7911d;fill-opacity:1;fill-rule:nonzero;stroke:none" id="path132"/>
        </g>
        <g id="g134" transform="translate(276.4725,449.363)">
          <path d="m 0,0 c 0,-1.088 -0.559,-1.97 -1.25,-1.97 -0.691,0 -1.253,0.882 -1.253,1.97 0,1.089 0.562,1.97 1.253,1.97 C -0.559,1.97 0,1.089 0,0" style="fill:#1e0700;fill-opacity:1;fill-rule:nonzero;stroke:none" id="path136"/>
        </g>
        <g id="g138" transform="translate(256.2031,387.9447)">
          <path d="m 0,0 -3.019,-16.467 18.386,9.878 1.371,-13.992 13.173,10.151 1.371,-21.95 11.251,18.108 6.584,-15.089 7.412,15.365 9.054,-17.835 6.859,20.852 -6.586,-25.518 -9.327,17.289 -8.234,-16.191 -6.036,15.915 -12.9,-17.563 -1.095,21.68 -13.721,-10.155 -1.097,14.818 -19.756,-9.056 z" style="fill:#fff2c4;fill-opacity:1;fill-rule:nonzero;stroke:none" id="path140"/>
        </g>
        <g id="g142" transform="translate(243.3953,370.9289)">
          <path d="m 0,0 -8.047,-21.953 21.745,8.56 -7.112,-20.634 23.418,13.906 3.659,-26.341 17.928,19.758 9.146,-25.248 9.879,23.048 9.88,-25.608 6.585,25.244 -6.585,-31.467 -9.88,24.878 -10.611,-21.949 -9.146,27.073 -18.66,-20.854 -4.024,28.173 -25.98,-14.635 7.686,20.124 -21.954,-8.421 z" style="fill:#ffffff;fill-opacity:1;fill-rule:nonzero;stroke:none" id="path144"/>
        </g>
        <g id="g146" transform="translate(221.6965,339.7301)">
          <path d="m 0,0 -8.932,-20.7 23.139,16.444 -12.586,-35.118 38.162,25.171 3.044,-48.715 25.371,38.363 15.426,-43.841 8.731,38.97 18.267,-37.143 3.043,42.621 -1.625,-46.882 -18.874,32.271 -10.15,-38.77 -15.629,47.702 -26.388,-42.019 -2.232,54.603 -41.406,-28.621 14.21,38.36 -23.141,-18.062 z" style="fill:#fff2c4;fill-opacity:1;fill-rule:nonzero;stroke:none" id="path148"/>
        </g>
        <g id="g150" transform="translate(213.3965,305.0728)">
          <path d="m 0,0 -21.219,-16.098 16.464,9.144 -12.604,-29.335 c 0.483,-0.403 0.953,-0.825 1.437,-1.223 z" style="fill:#ffffff;fill-opacity:1;fill-rule:nonzero;stroke:none" id="path152"/>
        </g>
        <g id="g154" transform="translate(247.4221,290.0723)">
          <path d="m 0,0 -38.986,-30.767 c 0.787,-0.549 1.563,-1.112 2.362,-1.651 l 34.792,26.201 2.679,-45.126 c 0.789,-0.287 1.59,-0.541 2.385,-0.812 z" style="fill:#ffffff;fill-opacity:1;fill-rule:nonzero;stroke:none" id="path156"/>
        </g>
        <g id="g158" transform="translate(286.5707,286.4153)">
          <path d="m 0,0 -22.6,-52.494 c 0.971,-0.241 1.962,-0.449 2.943,-0.675 l 19.29,42.557 12.881,-46.946 c 0.815,-0.036 1.635,-0.047 2.452,-0.064 z" style="fill:#ffffff;fill-opacity:1;fill-rule:nonzero;stroke:none" id="path160"/>
        </g>
        <g id="g162" transform="translate(348.7454,234.0176)">
          <path d="M 0,0 C 0.34,0.087 0.673,0.188 1.013,0.277 L -2.903,46.175 Z" style="fill:#ffffff;fill-opacity:1;fill-rule:nonzero;stroke:none" id="path164"/>
        </g>
        <g id="g166" transform="translate(318.4013,279.4649)">
          <path d="m 0,0 -6.449,-50.644 c 0.834,0.032 1.678,0.028 2.509,0.062 l 5.768,37.042 17.544,-34.288 c 0.812,0.154 1.635,0.272 2.443,0.434 z" style="fill:#ffffff;fill-opacity:1;fill-rule:nonzero;stroke:none" id="path168"/>
        </g>
        <g id="g170" transform="translate(270.8563,479.4619)">
          <path d="m 0,0 c 0,0 14.703,4.385 16.537,-4.169 0.861,-4.025 2.302,-3.022 3.452,-3.022 0,0 -3.646,-4.131 -6.471,0.577 C 11.359,-3.02 12.872,0.464 8.559,0.609 4.244,0.754 0,0 0,0" style="fill:#f15d22;fill-opacity:1;fill-rule:nonzero;stroke:none" id="path172"/>
        </g>
        <g id="g174" transform="translate(296.6819,477.501)">
          <path d="m 0,0 c 0,0 0.819,-2.459 3.01,-2.512 4.947,-0.131 13.926,9.332 18.671,7.099 3.071,-1.444 6.472,-6.225 6.685,-7.654 0,0 -0.858,6.311 -6.968,9.358 C 15.289,9.345 9.662,0.506 4.218,1.498 -1.227,2.492 0,0 0,0" style="fill:#f15d22;fill-opacity:1;fill-rule:nonzero;stroke:none" id="path176"/>
        </g>
      </g>
    </g>
  </g>
</svg>